<svg id="Page-1" xmlns="http://www.w3.org/2000/svg" width="161.982" height="24.794" viewBox="0 0 161.982 24.794">
  <g id="logo_yvanpaque" transform="translate(0)">
    <path id="Shape" d="M.3,38.011H14.4v3.247H.3Zm0-5.387H14.4v3.247H.3ZM.3,27.2H14.4v3.247H.3Z" transform="translate(-0.3 -16.809)" fill="#1d1d1d"/>
    <path id="Path" d="M8.447,13,5.2,16.247H19.6v14.4L22.85,27.4V13Z" transform="translate(-3.328 -8.034)" fill="#1d1d1d"/>
    <path id="Shape-2" data-name="Shape" d="M72.372,18.49,67.1,10.468h3.82L73.9,15.7l3.133-5.234H80.7L75.466,18.49v5.96H72.372Zm8.634-8.023h3.515l3.438,9.169H88l3.515-9.169H94.8L89.067,24.45H86.584Zm19.331,0h2.56l6.074,13.982h-3.476l-1.223-2.98H98.847L97.7,24.45H94.3l6.036-13.982Zm1.184,4.05L99.84,18.872h3.4ZM111,10.468h4.2l5.96,9.7h.038v-9.7h3.094V24.45h-4.011l-6.112-9.971h-.038V24.45H111Zm23.266,0h5.2c2.9,0,5.31.917,5.31,4.241,0,3.285-2.216,4.279-5.157,4.279h-2.254V24.45h-3.094Zm3.056,5.921h2.063c1.07,0,2.178-.382,2.178-1.681,0-1.452-1.452-1.643-2.636-1.643h-1.566v3.324Zm12.8-5.921h2.56l6.074,13.982h-3.477l-1.223-2.98h-5.425l-1.184,2.98h-3.4Zm1.184,4.05-1.681,4.355h3.4Zm24.832,9.933h-8.481c-4.355,0-7.6-2.674-7.6-7.182a7.455,7.455,0,0,1,14.9,0,5.03,5.03,0,0,1-2.789,4.775v.038h3.9V24.45Zm-8.6-2.827a4.317,4.317,0,1,0-4.279-4.317,4.28,4.28,0,0,0,4.279,4.317Zm22.54-2.56c0,3.285-2.025,5.73-5.883,5.73-3.9,0-5.921-2.445-5.921-5.73v-8.6h3.094v8.481a2.815,2.815,0,1,0,5.616,0V10.468h3.094v8.6Zm3.629-8.6h9.513v2.827H196.8v2.6h6.074V18.72H196.8v2.827h6.762v2.9h-9.856V10.468ZM68.59.382h3.133v.764H69.43V2.292h2.178v.764H69.43v1.3h2.407v.764H68.59Zm4.584,0h.84V5.119h-.84Zm2.292,0h3.056v.764H76.307V2.407h2.1v.764h-2.1V5.119h-.84Zm4.2,0h3.056v.764H80.509V2.407h2.1v.764h-2.1V5.119h-.84Zm5.539,0h.726l2.025,4.737H87l-.458-1.07H84.482l-.42,1.07h-.955Zm1.07,2.942-.726-1.91-.726,1.91Zm6.609,1.223A4.075,4.075,0,0,1,90.939,5a2.366,2.366,0,0,1-2.483-2.483A2.376,2.376,0,0,1,90.939,0a2.643,2.643,0,0,1,1.872.611l-.611.611A1.735,1.735,0,0,0,90.977.764a1.616,1.616,0,0,0-1.643,1.681A1.637,1.637,0,0,0,90.977,4.2a2.494,2.494,0,0,0,1.108-.229V2.865H91.053V2.1h1.8V4.546Zm1.3-4.164h3.133v.764H95.027V2.292H97.2v.764H95.027v1.3h2.407v.764H94.186Z" transform="translate(-41.58 0)" fill="#1d1d1d"/>
  </g>
</svg>
