<svg xmlns="http://www.w3.org/2000/svg" width="162" height="53.22" viewBox="0 0 162 53.22">
  <g id="logo-greisch" transform="translate(0 -0.187)">
    <path id="Tracé_25" data-name="Tracé 25" d="M40.32,53.407h108V.187h-108Z" transform="translate(13.68)" fill="none" fill-rule="evenodd"/>
    <g id="Groupe_14" data-name="Groupe 14" transform="translate(0 0.187)">
      <path id="Tracé_26" data-name="Tracé 26" d="M0,53.407H54V.187H0Z" transform="translate(0 -0.187)" fill="#1d1d1d" fill-rule="evenodd" opacity="0.25"/>
      <g id="Groupe_13" data-name="Groupe 13" transform="translate(40.459 13.02)">
        <path id="Tracé_27" data-name="Tracé 27" d="M13.969,22.184V5.873H10.718V7.621A5.131,5.131,0,0,0,6.351,5.678,5.629,5.629,0,0,0,2.344,7.1C.734,8.689.472,10.987.472,13.77s.262,5.081,1.872,6.666a5.554,5.554,0,0,0,3.974,1.457,5.166,5.166,0,0,0,4.3-1.877v2.1c0,2.2-1.084,4.176-3.908,4.176A4.717,4.717,0,0,1,3.1,24.839l-2.135,2.1a7.762,7.762,0,0,0,5.879,2.17c4.434,0,7.126-2.914,7.126-6.928M10.62,13.77c0,2.589-.361,5.146-3.383,5.146S3.822,16.359,3.822,13.77s.394-5.145,3.415-5.145,3.383,2.557,3.383,5.145" transform="translate(-0.472 0.859)" fill="#1d1d1d" fill-rule="evenodd"/>
        <path id="Tracé_28" data-name="Tracé 28" d="M23.685,9.724a3.11,3.11,0,0,0-2.5-1.1,3.4,3.4,0,0,0-3.317,3.689v9.969h-3.35V5.873h3.284v1.78A5.562,5.562,0,0,1,22.24,5.679a5.2,5.2,0,0,1,3.975,1.553Z" transform="translate(4.295 0.859)" fill="#1d1d1d" fill-rule="evenodd"/>
        <path id="Tracé_29" data-name="Tracé 29" d="M37.982,15.031V13.575c0-4.66-2.6-7.9-7.061-7.9-4.269,0-7.06,3.075-7.06,8.382,0,6.246,3.316,8.416,7.487,8.416a7.864,7.864,0,0,0,6.239-2.557l-2.134-1.974a5,5,0,0,1-4.04,1.682c-2.726,0-4.236-1.779-4.236-4.6Zm-3.318-2.3H27.176A5.122,5.122,0,0,1,27.6,10.5,3.479,3.479,0,0,1,30.92,8.43,3.434,3.434,0,0,1,34.205,10.5a5.122,5.122,0,0,1,.459,2.232Z" transform="translate(7.463 0.859)" fill="#1d1d1d" fill-rule="evenodd"/>
        <path id="Tracé_30" data-name="Tracé 30" d="M37.737,23.938h3.352V7.529H37.737Zm-.1-19.646h3.546V.8H37.641Z" transform="translate(12.139 -0.797)" fill="#1d1d1d" fill-rule="evenodd"/>
        <path id="Tracé_31" data-name="Tracé 31" d="M49.981,22.476c-2.725,0-5.025-.454-6.995-2.362l2.2-2.169a6.522,6.522,0,0,0,4.794,1.715c2.038,0,3.647-.713,3.647-2.265,0-1.1-.626-1.814-2.235-1.944l-2.66-.225c-3.12-.259-4.926-1.652-4.926-4.533,0-3.2,2.791-5.016,6.273-5.016a9.222,9.222,0,0,1,6.173,1.845l-2.1,2.1a6.353,6.353,0,0,0-4.1-1.2c-2,0-3.021.874-3.021,2.1,0,.971.524,1.715,2.3,1.877l2.627.226c3.12.26,4.96,1.715,4.96,4.629,0,3.43-2.957,5.211-6.931,5.211" transform="translate(13.952 0.859)" fill="#1d1d1d" fill-rule="evenodd"/>
        <path id="Tracé_32" data-name="Tracé 32" d="M63.208,22.476c-3.743,0-7.422-2.265-7.422-8.416s3.679-8.382,7.422-8.382a6.881,6.881,0,0,1,5.485,2.3l-2.3,2.2a3.9,3.9,0,0,0-3.187-1.554,3.77,3.77,0,0,0-3.086,1.456c-.724.907-.986,2.072-.986,3.981s.263,3.107.986,4.014a3.769,3.769,0,0,0,3.086,1.456,3.9,3.9,0,0,0,3.187-1.554l2.3,2.169a6.906,6.906,0,0,1-5.485,2.331" transform="translate(18.295 0.859)" fill="#1d1d1d" fill-rule="evenodd"/>
        <path id="Tracé_33" data-name="Tracé 33" d="M78.4,23.914V13.847c0-2.491-1.477-3.591-3.348-3.591s-3.384,1.131-3.384,3.591V23.914H68.317V.869h3.348V9.155a5.764,5.764,0,0,1,4.3-1.844c3.712,0,5.781,2.459,5.781,6.02V23.914Z" transform="translate(22.546 -0.772)" fill="#1d1d1d" fill-rule="evenodd"/>
      </g>
    </g>
  </g>
</svg>
