<svg xmlns="http://www.w3.org/2000/svg" width="162" height="77.729" viewBox="0 0 162 77.729">
  <g id="logo-chu" transform="translate(-0.021 -0.004)">
    <path id="Tracé_18" data-name="Tracé 18" d="M154.054,4.788c-2.224,20.275-19.395,43.868-37.8,47.923-18.53,4.055-31.748-9.093-29.524-29.368,0,0,.865-5.53,4.447-6.39,3.582-.737,2.965,5.652,2.965,5.652C92.535,36.983,102.417,46.2,116.253,43.25c13.712-3.072,26.56-21.012,28.165-35.389,0,0,.494-6.513,6.177-7.741,4.324-.983,3.459,4.669,3.459,4.669ZM72.77,11.178,70.423,27.767H50.657L53,11.178H41.516L39.169,27.767H20.886L19.9,35.14H38.181L35.587,53.2H47.075L49.669,35.14H69.434L66.84,53.2H78.329l5.93-42.025Z" transform="translate(7.896 0)" fill="#1d1d1d"/>
    <path id="Tracé_19" data-name="Tracé 19" d="M44.349,13.169c-17.055,1.37-31.8,10.842-32.842,21.114S23.376,51.745,40.546,50.376c0,0,3.8-.228,3.572,2.511-.346,2.853-4.609,2.739-4.609,2.739C15.886,57.794-1.284,48.321.1,34.169,1.6,20.017,21.763,7.006,45.155,5.066c0,0,5.877-.457,5.416,3.424-.346,3.766-5.992,4.451-5.992,4.451ZM58.407,67.153a7.483,7.483,0,0,1-5.07,2.054c-3.457,0-5.992-2.511-5.416-6.734A7.347,7.347,0,0,1,55.3,55.968a5.769,5.769,0,0,1,4.379,1.712l.807-5.706h2.766l-2.42,16.777H58.062Zm1.037-7.076a5.164,5.164,0,0,0-3.8-1.712,4.711,4.711,0,0,0-4.84,4.223A3.354,3.354,0,0,0,54.374,66.7c1.959,0,3.111-.913,4.379-1.826Zm17.4,4.908a7.257,7.257,0,0,1-6.914,4.109c-4.264,0-6.453-2.739-5.992-6.62a7.438,7.438,0,0,1,7.605-6.62c4.494,0,6.338,2.967,5.647,7.418h-10.6c0,.8,0,3.31,3.457,3.538a3.963,3.963,0,0,0,3.572-1.826ZM74.655,61.1c-.115-2.054-1.383-2.853-3.457-2.853A4.053,4.053,0,0,0,67.05,61.1Zm11.754-9.13h3.227l-1.959,13.81H99.431l-.346,2.967H83.99Zm16.479,4.337h2.766l-1.729,12.326H101.16Zm.691-4.793h2.766L106,54.028h-2.766Zm16.709,13.467a7.257,7.257,0,0,1-6.914,4.109c-4.264,0-6.453-2.739-5.992-6.62a7.438,7.438,0,0,1,7.605-6.62c4.494,0,6.338,2.967,5.647,7.418h-10.6c0,.8,0,3.31,3.457,3.538a3.963,3.963,0,0,0,3.572-1.826ZM118.1,61.1c-.115-2.054-1.383-2.853-3.457-2.853a4.053,4.053,0,0,0-4.148,2.853Zm-5.877-9.929h3.111l1.959,3.31h-1.959Zm24.891,7.19a2.774,2.774,0,0,0-1.037-.228,2.188,2.188,0,0,0-.922.228,3.139,3.139,0,0,1,.23,2.054c-.461,3.424-3.572,4.565-6.8,4.565a11.2,11.2,0,0,1-2.535-.342,2.021,2.021,0,0,0-.922,1.027c-.115.457.115.685,2.65.685h3.8c2.65.114,4.148.913,3.918,2.853-.461,2.967-4.725,3.766-8.412,3.766-3.342,0-6.223-.685-5.877-2.739.23-1.484,1.5-1.712,2.65-1.94a1.5,1.5,0,0,1-1.5-1.94,3.063,3.063,0,0,1,2.42-2.283,3.225,3.225,0,0,1-1.5-3.538c.576-3.652,3.918-4.451,6.914-4.451a6.492,6.492,0,0,1,4.033,1.141A4.221,4.221,0,0,1,137,55.854h.461Zm-11.063,10.5c-.691,0-1.613.228-1.729.913-.115,1.027,1.152,1.141,3.342,1.141s4.609-.228,4.725-1.255c.115-.8-.346-.8-3.457-.8Zm6.568-8.446c.23-1.826-1.5-2.4-3-2.4s-3.342.571-3.572,2.4c-.23,1.94,1.383,2.4,2.881,2.4S132.388,62.245,132.619,60.419Zm17.631,4.565a7.257,7.257,0,0,1-6.914,4.109c-4.264,0-6.453-2.739-5.992-6.62a7.438,7.438,0,0,1,7.605-6.62c4.494,0,6.338,2.967,5.647,7.418h-10.6c0,.8.115,3.31,3.457,3.538a3.963,3.963,0,0,0,3.572-1.826Zm-2.074-3.88c-.115-2.054-1.383-2.853-3.457-2.853A4.053,4.053,0,0,0,140.57,61.1Z" transform="translate(0 4.759)" fill="#1d1d1d"/>
  </g>
</svg>
