<svg id="logo-eiffage" xmlns="http://www.w3.org/2000/svg" width="161.982" height="30.583" viewBox="0 0 161.982 30.583">
  <path id="Tracé_20" data-name="Tracé 20" d="M0,43.409H21.714V38.363H0ZM0,35H21.714V29.953H0Zm0-8.41H21.714V21.542H0Z" transform="translate(0 -13.132)" fill="#1d1d1d"/>
  <path id="Tracé_21" data-name="Tracé 21" d="M12.288,0,7.278,5.047H29.493V27.418L34.5,22.372V0Z" transform="translate(-4.437)" fill="#1d1d1d"/>
  <path id="Tracé_22" data-name="Tracé 22" d="M201.72,23.131a9.314,9.314,0,0,1,5.352,1.756l.7-2.623a13.752,13.752,0,0,0-6.36-1.5c-8.907,0-13.445,6.363-13.445,12.953,0,6.268,3.893,9.525,10.291,9.525a19.326,19.326,0,0,0,7.8-1.522l1.188-8.473h-5.667l-1.021,7.282a6.012,6.012,0,0,1-1.777.237c-4.465,0-5.086-4.394-5.086-7.106,0-5.108,2.834-10.526,8.028-10.526m-79.289,19.8H128.1l3.067-21.867H125.5Zm-17.61,0h12.632l.331-2.355h-6.966l1.113-7.94h6.464l.295-2.1h-6.463l1-7.113h6.966l.331-2.356H107.887Z" transform="translate(-63.897 -12.656)" fill="#1d1d1d"/>
  <path id="Tracé_23" data-name="Tracé 23" d="M15.748,3.32,16.077.964H3.445L.378,22.832H13.011l.331-2.355H6.376l1.113-7.941h6.464l.295-2.1H7.783l1-7.113Z" transform="translate(145.904 7.447)" fill="#1d1d1d"/>
  <path id="Tracé_24" data-name="Tracé 24" d="M179.545,43.4h5.667l1.445-10.3h6.464l.295-2.1h-6.464l1-7.113h6.965l.331-2.356H182.611ZM210.676,31h-6.465l1-7.113h6.965l.33-2.355H199.875L196.809,43.4h5.666l1.444-10.3h6.464Zm7.363,3.315,3.838-6.815,1.436,6.815Zm4.083-12.793L209.84,43.4h3.084l3.931-6.981h6.9l1.472,6.981h5.349L226.03,21.52Z" transform="translate(-109.448 -13.118)" fill="#1d1d1d"/>
</svg>
