<svg id="logo-canon" xmlns="http://www.w3.org/2000/svg" width="161.982" height="33.869" viewBox="0 0 161.982 33.869">
  <path id="Tracé_13" data-name="Tracé 13" d="M39.759,8.516,26.312,16.152l7.1-11.091a13.508,13.508,0,0,0-7.12-1.851c-7.461-.008-13.548,5.7-13.522,12.961C12.745,23.4,18.842,29.2,26.329,29.2A13.682,13.682,0,0,0,37.871,23.02l.635,1.9C35.211,29.123,29,32.4,20.79,32.4,7.31,32.388-.008,24.517,0,16.171-.008,7.8,7.672,0,20.789,0c9.2,0,15.084,3.273,18.97,8.516" transform="translate(0 0)" fill="#1d1d1d"/>
  <path id="Tracé_14" data-name="Tracé 14" d="M77.924,30.506H68.133l0-19.274a2.439,2.439,0,0,0-4.878,0l0,19.274H53.506V8.821H47l9.378-4.409A5.45,5.45,0,0,1,58.385,4,4.858,4.858,0,0,1,63.2,8.079L70.98,4.437A5.661,5.661,0,0,1,73.012,4a4.879,4.879,0,0,1,4.911,4.811V30.506" transform="translate(22.21 1.89)" fill="#1d1d1d"/>
  <path id="Tracé_15" data-name="Tracé 15" d="M42.375,26.895a4.829,4.829,0,1,0-4.8-4.829A4.815,4.815,0,0,0,42.375,26.895ZM53.343,9.811l5.581,20.122H49.546l-1.211-4.451a12.889,12.889,0,0,1-10.617,5.024c-4.3.01-9.7-3.384-9.719-8.476.016-5.088,5.421-8.413,9.736-8.427A12.582,12.582,0,0,1,45.752,16.2L43.661,8.69H31.5L42.5,4.587A8.165,8.165,0,0,1,53.343,9.811Z" transform="translate(13.232 1.89)" fill="#1d1d1d"/>
  <path id="Tracé_16" data-name="Tracé 16" d="M88.171,29.87a2.958,2.958,0,0,0,2.217-3.705l-5.165-18a3.119,3.119,0,0,0-3.908-2.076,2.948,2.948,0,0,0-2.177,3.7l5.193,17.994a3.1,3.1,0,0,0,3.839,2.085ZM70,17.99C70,10.263,76.594,4,84.725,4s14.726,6.263,14.726,13.99S92.857,31.979,84.725,31.979,70,25.716,70,17.99Z" transform="translate(33.079 1.89)" fill="#1d1d1d"/>
  <path id="Tracé_17" data-name="Tracé 17" d="M119.924,30.506h-9.792l0-19.275a2.439,2.439,0,0,0-4.878,0l0,19.275H95.506V8.821H89l9.378-4.409A5.445,5.445,0,0,1,100.385,4a4.861,4.861,0,0,1,4.82,4.079l7.773-3.641A5.673,5.673,0,0,1,115.014,4a4.878,4.878,0,0,1,4.909,4.811V30.506" transform="translate(42.058 1.89)" fill="#1d1d1d"/>
</svg>
