<svg id="logo-lexing" xmlns="http://www.w3.org/2000/svg" width="161.982" height="56.202" viewBox="0 0 161.982 56.202">
  <path id="Tracé_34" data-name="Tracé 34" d="M58.335,46.852l-.709,1.818h1.417Zm-.524-1.417h1.017l2.034,5.3H59.814l-.4-1.11H57.256l-.431,1.11H55.777Z" transform="translate(1.719 1.092)" fill="#1d1d1d" fill-rule="evenodd"/>
  <path id="Tracé_35" data-name="Tracé 35" d="M61.277,45.435h1.048l1.325,3.759,1.356-3.759h1.048l-1.91,5.3h-.986Z" transform="translate(1.889 1.092)" fill="#1d1d1d" fill-rule="evenodd"/>
  <g id="Groupe_15" data-name="Groupe 15" transform="translate(0 0)">
    <path id="Tracé_36" data-name="Tracé 36" d="M69.37,46.182a1.677,1.677,0,0,0-1.233.524A1.742,1.742,0,0,0,67.645,48a1.668,1.668,0,0,0,.647,1.387,1.72,1.72,0,0,0,1.14.4,1.675,1.675,0,0,0,1.232-.524,1.742,1.742,0,0,0,.493-1.294,1.869,1.869,0,0,0-.524-1.294,1.605,1.605,0,0,0-1.263-.493M69.4,45.2a2.754,2.754,0,0,1,1.941.8,2.626,2.626,0,0,1,.8,2,2.772,2.772,0,0,1-.8,1.972,2.535,2.535,0,0,1-1.941.8,2.583,2.583,0,0,1-1.972-.832,2.772,2.772,0,0,1-.8-1.972,2.769,2.769,0,0,1,1.387-2.4A2.749,2.749,0,0,1,69.4,45.2" transform="translate(2.053 1.208)" fill="#1d1d1d" fill-rule="evenodd"/>
    <path id="Tracé_37" data-name="Tracé 37" d="M77.964,46.241l-.709.678a2.27,2.27,0,0,0-1.633-.77,1.87,1.87,0,0,0-1.294.524,1.765,1.765,0,0,0-.524,1.294,1.981,1.981,0,0,0,.216.955,1.634,1.634,0,0,0,.647.647,1.882,1.882,0,0,0,.924.247,2.182,2.182,0,0,0,.8-.154,3.087,3.087,0,0,0,.8-.585l.678.709a4.482,4.482,0,0,1-1.109.8,2.888,2.888,0,0,1-1.2.216,2.691,2.691,0,0,1-2.835-2.773,2.78,2.78,0,0,1,.37-1.417,2.607,2.607,0,0,1,1.017-.986,2.894,2.894,0,0,1,1.448-.37,3.014,3.014,0,0,1,1.263.277,1.971,1.971,0,0,1,1.14.709" transform="translate(2.241 1.21)" fill="#1d1d1d" fill-rule="evenodd"/>
    <path id="Tracé_38" data-name="Tracé 38" d="M81.022,46.732l-.709,1.818h1.417ZM80.5,45.315h1.017l2.033,5.3H82.5l-.4-1.11H79.944l-.431,1.11H78.465Z" transform="translate(2.418 1.212)" fill="#1d1d1d" fill-rule="evenodd"/>
    <path id="Tracé_39" data-name="Tracé 39" d="M83.845,45.315h2.927V46.3h-.955v4.314H84.8V46.3h-.955Z" transform="translate(2.584 1.212)" fill="#1d1d1d" fill-rule="evenodd"/>
    <path id="Tracé_40" data-name="Tracé 40" d="M90.339,46.029l-.739.647c-.278-.37-.524-.555-.8-.555a.62.62,0,0,0-.339.093.28.28,0,0,0-.123.246.35.35,0,0,0,.092.246c.092.092.339.339.739.678a6.859,6.859,0,0,1,.709.616,2.174,2.174,0,0,1,.431.585,1.38,1.38,0,0,1,.124.616,1.4,1.4,0,0,1-.462,1.078,1.713,1.713,0,0,1-1.171.431,1.759,1.759,0,0,1-.986-.277,2.021,2.021,0,0,1-.709-.863l.863-.524c.246.462.555.709.893.709a.67.67,0,0,0,.432-.154.426.426,0,0,0,.185-.339.592.592,0,0,0-.123-.37,3.515,3.515,0,0,0-.586-.555,5.226,5.226,0,0,1-1.109-1.078,1.511,1.511,0,0,1-.246-.77,1.314,1.314,0,0,1,.431-.955,1.394,1.394,0,0,1,1.048-.4,1.671,1.671,0,0,1,.77.185c.246.124.4.4.678.709" transform="translate(2.685 1.206)" fill="#1d1d1d" fill-rule="evenodd"/>
    <path id="Tracé_41" data-name="Tracé 41" d="M35.69,54.994h9.8V45.2h-9.8Z" transform="translate(1.1 1.208)" fill="#1d1d1d" fill-rule="evenodd"/>
    <path id="Tracé_42" data-name="Tracé 42" d="M0,35.958H21.6V32.014H0Z" transform="translate(0 0.802)" fill="#1d1d1d" fill-rule="evenodd"/>
    <path id="Tracé_43" data-name="Tracé 43" d="M31.416,8.53h8.35V.179h-8.35Z" transform="translate(0.968 -0.179)" fill="#1d1d1d" fill-rule="evenodd"/>
    <path id="Tracé_44" data-name="Tracé 44" d="M27.381,13.541h1.633V34.924h16.7V36.5H27.381Z" transform="translate(0.844 0.232)" fill="#1d1d1d" fill-rule="evenodd"/>
    <path id="Tracé_45" data-name="Tracé 45" d="M78.624,19.788h1.91l3.944,6.378,3.944-6.378H90.3l-4.9,7.95,5.207,8.473H88.7l-4.221-6.933L80.2,36.211h-1.91l5.238-8.473Z" transform="translate(2.413 0.425)" fill="#1d1d1d" fill-rule="evenodd"/>
    <path id="Tracé_46" data-name="Tracé 46" d="M101.66,36.211h1.633V19.788H101.66Z" transform="translate(3.133 0.425)" fill="#1d1d1d" fill-rule="evenodd"/>
    <path id="Tracé_47" data-name="Tracé 47" d="M156.675,22.542l-1.263,1.2a9.665,9.665,0,0,0-3.02-2.034A8.125,8.125,0,0,0,149.218,21a7.321,7.321,0,0,0-3.667.955,6.859,6.859,0,0,0-2.712,2.588,6.526,6.526,0,0,0-.955,3.42,6.883,6.883,0,0,0,.986,3.513,7.016,7.016,0,0,0,2.742,2.619,7.763,7.763,0,0,0,3.852.955,6.527,6.527,0,0,0,4.283-1.417,5.62,5.62,0,0,0,2.064-3.7h-5.238V28.366h7.087a8.211,8.211,0,0,1-2.249,6.039,8.112,8.112,0,0,1-5.978,2.249,8.978,8.978,0,0,1-7.21-3.112,8.255,8.255,0,0,1-2.034-5.515,8.671,8.671,0,0,1,1.171-4.345,8.484,8.484,0,0,1,3.2-3.143,9.181,9.181,0,0,1,4.622-1.14,10.559,10.559,0,0,1,3.944.74,11.293,11.293,0,0,1,3.543,2.4" transform="translate(4.321 0.413)" fill="#1d1d1d" fill-rule="evenodd"/>
    <path id="Tracé_48" data-name="Tracé 48" d="M55.777,21.39H68.164v-1.6H55.777Z" transform="translate(1.719 0.425)" fill="#1d1d1d" fill-rule="evenodd"/>
    <path id="Tracé_49" data-name="Tracé 49" d="M55.777,35.858H68.164v-1.6H55.777Z" transform="translate(1.719 0.871)" fill="#1d1d1d" fill-rule="evenodd"/>
    <path id="Tracé_50" data-name="Tracé 50" d="M55.777,28.624H68.164v-1.6H55.777Z" transform="translate(1.719 0.648)" fill="#1d1d1d" fill-rule="evenodd"/>
    <path id="Tracé_51" data-name="Tracé 51" d="M117.524,36.3V23.052l9.86,13.249h1.325V19.848h-1.6V33.1l-9.86-13.249h-1.417V36.3Z" transform="translate(3.57 0.427)" fill="#1d1d1d" fill-rule="evenodd"/>
  </g>
</svg>
