<svg xmlns="http://www.w3.org/2000/svg" width="23.051" height="14.388" viewBox="0 0 23.051 14.388">
  <g id="Groupe_29" data-name="Groupe 29" transform="translate(-9.51 -12.911)">
    <path id="Tracé_3" data-name="Tracé 3" d="M356.474,121.691a3.26,3.26,0,0,1-1.368,2.755,4.7,4.7,0,0,1-1.478.71,6.47,6.47,0,0,1-1.792.243h-6.95V111.015h7.7a2.848,2.848,0,0,1,1.358.324,3.411,3.411,0,0,1,1.033.841,3.87,3.87,0,0,1,.658,1.175,3.946,3.946,0,0,1-.293,3.3,3.209,3.209,0,0,1-1.54,1.368,3.7,3.7,0,0,1,1.955,1.306A3.78,3.78,0,0,1,356.474,121.691Zm-8.793-8.285v3.626h3.728a1.663,1.663,0,0,0,1.205-.486,1.788,1.788,0,0,0,.5-1.337,1.845,1.845,0,0,0-.456-1.317,1.48,1.48,0,0,0-1.124-.486Zm5.977,7.758a2.11,2.11,0,0,0-.131-.739,2.081,2.081,0,0,0-.355-.618,1.634,1.634,0,0,0-.527-.415,1.478,1.478,0,0,0-.669-.153h-4.295v3.788h4.154a1.826,1.826,0,0,0,.718-.141,1.714,1.714,0,0,0,.577-.4,1.861,1.861,0,0,0,.385-.6A1.9,1.9,0,0,0,353.658,121.164Z" transform="translate(-335.375 -98.104)" fill="#1d1d1d"/>
    <path id="Tracé_4" data-name="Tracé 4" d="M359.258,124.4a5.738,5.738,0,0,1-2.237-.422,5.054,5.054,0,0,1-2.8-2.837,5.446,5.446,0,0,1-.382-2.022,5.729,5.729,0,0,1,.373-2.071,5.045,5.045,0,0,1,2.8-2.876,5.739,5.739,0,0,1,2.268-.431,5.6,5.6,0,0,1,2.247.431,5.32,5.32,0,0,1,3.1,5.339,2.048,2.048,0,0,1-.049.393h-7.949a3.034,3.034,0,0,0,.295,1.08,2.666,2.666,0,0,0,.608.8,2.632,2.632,0,0,0,.845.511,2.777,2.777,0,0,0,.982.177,3.03,3.03,0,0,0,1.481-.384,2.021,2.021,0,0,0,.951-1.01l2.258.628a4.586,4.586,0,0,1-1.816,1.933A5.631,5.631,0,0,1,359.258,124.4Zm2.67-6.2a2.739,2.739,0,0,0-.853-1.855,2.759,2.759,0,0,0-2.827-.511,2.646,2.646,0,0,0-.815.52,2.724,2.724,0,0,0-.579.805,2.835,2.835,0,0,0-.265,1.04Z" transform="translate(-332.073 -97.103)" fill="#1d1d1d"/>
    <path id="Tracé_5" data-name="Tracé 5" d="M355.274,111.515h6.883v1.708h-6.883Z" transform="translate(-331.552 -97.934)" fill="#1d1d1d"/>
  </g>
</svg>
