<svg xmlns="http://www.w3.org/2000/svg" width="22.536" height="22.507" viewBox="0 0 22.536 22.507">
  <path id="Tracé_6" data-name="Tracé 6" d="M270.463,150.5a11.254,11.254,0,1,0,11.268,11.254A11.273,11.273,0,0,0,270.463,150.5Zm7.414,5.311a9.451,9.451,0,0,1,2.1,5.8,23.5,23.5,0,0,0-4.4-.426,17.9,17.9,0,0,0-2.17.126c-.062-.151-.125-.3-.19-.453-.19-.449-.4-.9-.61-1.336a12.959,12.959,0,0,0,5.272-3.708Zm-7.414-3.55a9.484,9.484,0,0,1,6.272,2.362A10.874,10.874,0,0,1,271.818,158a51.214,51.214,0,0,0-3.5-5.491,9.478,9.478,0,0,1,2.147-.245Zm-4.089.922a61.755,61.755,0,0,1,3.482,5.424,36.033,36.033,0,0,1-8.6,1.145h-.095a9.549,9.549,0,0,1,5.215-6.569Zm-5.431,8.586c0-.079,0-.158,0-.236.056,0,.14,0,.249,0a35.662,35.662,0,0,0,9.508-1.352c.256.5.5,1.011.727,1.519-.107.032-.211.062-.316.1a15.212,15.212,0,0,0-7.775,6.27,9.457,9.457,0,0,1-2.4-6.3Zm9.52,9.506a9.484,9.484,0,0,1-5.807-1.98,13.161,13.161,0,0,1,7.461-5.9l.01,0a39.568,39.568,0,0,1,2.014,7.147,9.472,9.472,0,0,1-3.677.738Zm5.391-1.675a41.511,41.511,0,0,0-1.823-6.676,12.367,12.367,0,0,1,1.915-.144,14.2,14.2,0,0,1,3.907.545,9.521,9.521,0,0,1-4,6.274Z" transform="translate(-259.195 -150.499)" fill="#1d1d1d"/>
</svg>
