<svg xmlns="http://www.w3.org/2000/svg" width="23.403" height="23.403" viewBox="0 0 23.403 23.403">
  <g id="Groupe_7" data-name="Groupe 7" transform="translate(0 0)">
    <path id="Tracé_9" data-name="Tracé 9" d="M272.5,68.214a1.372,1.372,0,1,0,1.372,1.372A1.372,1.372,0,0,0,272.5,68.214Z" transform="translate(-254.6 -64.035)" fill="#1d1d1d"/>
    <path id="Tracé_10" data-name="Tracé 10" d="M269.2,69.5a5.764,5.764,0,1,0,5.764,5.764A5.77,5.77,0,0,0,269.2,69.5Zm0,9.456a3.692,3.692,0,1,1,3.691-3.693A3.7,3.7,0,0,1,269.2,78.958Z" transform="translate(-257.406 -63.565)" fill="#1d1d1d"/>
    <path id="Tracé_11" data-name="Tracé 11" d="M275.394,88.556h-9.345a7.037,7.037,0,0,1-7.029-7.029V72.182a7.037,7.037,0,0,1,7.029-7.029h9.345a7.037,7.037,0,0,1,7.029,7.029v9.345A7.037,7.037,0,0,1,275.394,88.556Zm-9.345-21.2a4.833,4.833,0,0,0-4.827,4.829v9.345a4.832,4.832,0,0,0,4.827,4.827h9.345a4.833,4.833,0,0,0,4.829-4.827V72.182a4.835,4.835,0,0,0-4.829-4.829Z" transform="translate(-259.02 -65.153)" fill="#1d1d1d"/>
  </g>
</svg>
