<svg xmlns="http://www.w3.org/2000/svg" width="18.633" height="18.589" viewBox="0 0 18.633 18.589">
  <g id="Groupe_28" data-name="Groupe 28" transform="translate(-11.282 -10.072)">
    <path id="Tracé_7" data-name="Tracé 7" d="M219.072,157.641h3.866v12.419h-3.866Zm1.934-6.171a2.238,2.238,0,1,1-2.242,2.236,2.238,2.238,0,0,1,2.242-2.236" transform="translate(-207.483 -141.398)" fill="#1d1d1d"/>
    <path id="Tracé_8" data-name="Tracé 8" d="M223.6,156.072h3.7v1.7h.051a4.058,4.058,0,0,1,3.656-2.007c3.907,0,4.628,2.571,4.628,5.915v6.811h-3.857v-6.037c0-1.442-.029-3.294-2.007-3.294-2.01,0-2.315,1.569-2.315,3.189v6.142H223.6Z" transform="translate(-205.719 -139.83)" fill="#1d1d1d"/>
  </g>
</svg>
