<svg xmlns="http://www.w3.org/2000/svg" width="21.85" height="17.919" viewBox="0 0 21.85 17.919">
  <path id="Tracé_12" data-name="Tracé 12" d="M324.032,69.288a8.994,8.994,0,0,1-2.209.628c.355-.059.877-.7,1.087-.96a4.019,4.019,0,0,0,.733-1.332c.019-.038.033-.086-.005-.115a.128.128,0,0,0-.116.01,11.31,11.31,0,0,1-2.62,1,.175.175,0,0,1-.181-.048,2.184,2.184,0,0,0-.229-.233,4.645,4.645,0,0,0-1.27-.774,4.43,4.43,0,0,0-1.946-.313,4.651,4.651,0,0,0-1.847.52,4.733,4.733,0,0,0-1.489,1.212,4.533,4.533,0,0,0-.889,1.775A4.8,4.8,0,0,0,313,72.532c.014.105.005.119-.09.105a14.013,14.013,0,0,1-9-4.565c-.105-.12-.162-.12-.248.008a4.536,4.536,0,0,0,.778,5.375c.175.167.358.333.552.485a4.6,4.6,0,0,1-1.736-.485c-.105-.067-.159-.029-.167.09a2.77,2.77,0,0,0,.027.515,4.606,4.606,0,0,0,2.846,3.666,2.634,2.634,0,0,0,.577.176,5.138,5.138,0,0,1-1.7.053c-.125-.025-.173.037-.125.156a4.787,4.787,0,0,0,3.58,2.987c.162.029.325.029.486.067-.01.014-.019.014-.029.029a5.666,5.666,0,0,1-2.444,1.29,8.757,8.757,0,0,1-3.713.474c-.2-.029-.241-.027-.3,0s-.007.082.058.134c.253.167.511.314.774.456a12.233,12.233,0,0,0,2.481.99,13.253,13.253,0,0,0,12.832-2.99c2.631-2.6,3.553-6.194,3.553-9.79,0-.141.166-.218.266-.292a8.629,8.629,0,0,0,1.746-1.81.547.547,0,0,0,.116-.347v-.019C324.122,69.231,324.121,69.249,324.032,69.288Z" transform="translate(-302.273 -67.141)" fill="#1d1d1d"/>
</svg>
